<?xml version="1.0" encoding="UTF-8" standalone="no"?>
<svg xmlns="http://www.w3.org/2000/svg" width="200" height="60" viewBox="0 0 200 60" fill="none">
  <path d="M30 15H40V45H30V15Z" fill="black"/>
  <path d="M45 15H55L65 35V15H75V45H65L55 25V45H45V15Z" fill="black"/>
  <path d="M80 15H105V25H90V25.5H105V45H80V35H95V34.5H80V15Z" fill="black"/>
  <path d="M110 15H135V25H120V27.5H135V45H110V35H125V32.5H110V15Z" fill="black"/>
  <path d="M140 15H170V25H160V45H150V25H140V15Z" fill="black"/>
</svg>
