<?xml version="1.0" encoding="UTF-8" standalone="no"?>
<svg xmlns="http://www.w3.org/2000/svg" width="200" height="60" viewBox="0 0 200 60" fill="none">
  <path d="M100 30C100 46.5685 86.5685 60 70 60C53.4315 60 40 46.5685 40 30C40 13.4315 53.4315 0 70 0C86.5685 0 100 13.4315 100 30Z" fill="#005BFF"/>
  <path d="M70 48C79.9411 48 88 39.9411 88 30C88 20.0589 79.9411 12 70 12C60.0589 12 52 20.0589 52 30C52 39.9411 60.0589 48 70 48Z" fill="white"/>
  <path d="M160 30C160 46.5685 146.569 60 130 60C113.431 60 100 46.5685 100 30C100 13.4315 113.431 0 130 0C146.569 0 160 13.4315 160 30Z" fill="#FF4F12"/>
  <path d="M130 48C139.941 48 148 39.9411 148 30C148 20.0589 139.941 12 130 12C120.059 12 112 20.0589 112 30C112 39.9411 120.059 48 130 48Z" fill="white"/>
  <path d="M130 42C136.627 42 142 36.6274 142 30C142 23.3726 136.627 18 130 18C123.373 18 118 23.3726 118 30C118 36.6274 123.373 42 130 42Z" fill="#FF4F12"/>
</svg>
