<?xml version="1.0" encoding="UTF-8" standalone="no"?>
<svg xmlns="http://www.w3.org/2000/svg" width="200" height="60" viewBox="0 0 200 60" fill="none">
  <path d="M30 30C30 18.9543 38.9543 10 50 10H150C161.046 10 170 18.9543 170 30C170 41.0457 161.046 50 150 50H50C38.9543 50 30 41.0457 30 30Z" fill="#21A038"/>
  <path d="M100 45C108.284 45 115 38.2843 115 30C115 21.7157 108.284 15 100 15C91.7157 15 85 21.7157 85 30C85 38.2843 91.7157 45 100 45Z" fill="white"/>
  <path d="M94 22H97V38H94V22Z" fill="#21A038"/>
  <path d="M103 22H106V38H103V22Z" fill="#21A038"/>
  <path d="M88 30C88 25.5817 91.5817 22 96 22H104C108.418 22 112 25.5817 112 30C112 34.4183 108.418 38 104 38H96C91.5817 38 88 34.4183 88 30Z" stroke="#21A038" stroke-width="2"/>
  <path d="M125 25H128V35H125V25Z" fill="white"/>
  <path d="M130 25H140C141.333 25 142.333 25.3333 143 26C143.667 26.6667 144 27.6667 144 29V31C144 32.3333 143.667 33.3333 143 34C142.333 34.6667 141.333 35 140 35H130V25ZM133 28V32H140C140.333 32 140.583 31.9167 140.75 31.75C140.917 31.5833 141 31.3333 141 31V29C141 28.6667 140.917 28.4167 140.75 28.25C140.583 28.0833 140.333 28 140 28H133Z" fill="white"/>
  <path d="M146 25H149V30H154V25H157V35H154V33H149V35H146V25Z" fill="white"/>
  <path d="M159 25H169C170.333 25 171.333 25.3333 172 26C172.667 26.6667 173 27.6667 173 29V31C173 32.3333 172.667 33.3333 172 34C171.333 34.6667 170.333 35 169 35H159V25ZM162 28V32H169C169.333 32 169.583 31.9167 169.75 31.75C169.917 31.5833 170 31.3333 170 31V29C170 28.6667 169.917 28.4167 169.75 28.25C169.583 28.0833 169.333 28 169 28H162Z" fill="white"/>
</svg>
