<?xml version="1.0" encoding="UTF-8" standalone="no"?>
<svg xmlns="http://www.w3.org/2000/svg" width="200" height="60" viewBox="0 0 200 60" fill="none">
  <path d="M30 15H40V20H35V45H30V15Z" fill="#F33"/>
  <path d="M42 15H52C54.6667 15 56.6667 15.6667 58 17C59.3333 18.3333 60 20.3333 60 23V37C60 39.6667 59.3333 41.6667 58 43C56.6667 44.3333 54.6667 45 52 45H42V15ZM47 20V40H52C53 40 53.6667 39.6667 54 39C54.3333 38.3333 54.5 37.3333 54.5 36V24C54.5 22.6667 54.3333 21.6667 54 21C53.6667 20.3333 53 20 52 20H47Z" fill="#F33"/>
  <path d="M62 15H67V35C67 36.6667 67.3333 37.8333 68 38.5C68.6667 39.1667 69.6667 39.5 71 39.5C72.3333 39.5 73.3333 39.1667 74 38.5C74.6667 37.8333 75 36.6667 75 35V15H80V35C80 38.3333 79 40.8333 77 42.5C75 44.1667 72.3333 45 69 45C65.6667 45 63 44.1667 61 42.5C59 40.8333 58 38.3333 58 35V15H62Z" fill="#F33"/>
  <path d="M83 15H88V40H98V45H83V15Z" fill="#F33"/>
  <path d="M100 15H115V20H110V45H105V20H100V15Z" fill="#F33"/>
  <path d="M117 15H122V45H117V15Z" fill="#F33"/>
  <path d="M125 15H130V25L138 15H144L135 26L145 45H139L132 31L130 33V45H125V15Z" fill="#F33"/>
  <path d="M145 15H150V45H145V15Z" fill="#F33"/>
  <path d="M153 15H158V40H168V45H153V15Z" fill="#F33"/>
  <path d="M170 15H175V45H170V15Z" fill="#F33"/>
</svg>
