<?xml version="1.0" encoding="UTF-8"?>
<svg width="150" height="40" viewBox="0 0 150 40" fill="none" xmlns="http://www.w3.org/2000/svg">
  <path d="M20 0C8.954 0 0 8.954 0 20s8.954 20 20 20 20-8.954 20-20S31.046 0 20 0zm0 36c-8.837 0-16-7.163-16-16S11.163 4 20 4s16 7.163 16 16-7.163 16-16 16z" fill="#FF0000"/>
  <path d="M50 10h8.571L65 30h-7.143l-1.429-4.5h-5.714L49.286 30H42l8-20zm4.286 11.5l-1.429-4.5-1.428 4.5h2.857zM70 10h7.143v15H85v5H70V10zM90 10h15v5h-7.857v2.5H105v5h-7.857V25H105v5H90V10zM110 10h15v5h-7.857v2.5H125v5h-7.857V25H125v5h-15V10z" fill="#000"/>
</svg>
